<svg xmlns="http://www.w3.org/2000/svg" viewBox="0 0 512 512" width="512" height="512">
  <defs>
    <linearGradient id="bg" x1="0%" y1="0%" x2="100%" y2="100%">
      <stop offset="0%" style="stop-color:#0057FF"/>
      <stop offset="100%" style="stop-color:#003DC7"/>
    </linearGradient>
    <linearGradient id="drum" x1="0%" y1="0%" x2="0%" y2="100%">
      <stop offset="0%" style="stop-color:#ffffff;stop-opacity:0.18"/>
      <stop offset="100%" style="stop-color:#ffffff;stop-opacity:0.04"/>
    </linearGradient>
    <filter id="shadow" x="-10%" y="-10%" width="120%" height="120%">
      <feDropShadow dx="0" dy="4" stdDeviation="8" flood-color="#000000" flood-opacity="0.18"/>
    </filter>
  </defs>

  <!-- 배경 -->
  <rect width="512" height="512" rx="112" ry="112" fill="url(#bg)"/>

  <!-- 세탁기 외형 -->
  <rect x="108" y="110" width="296" height="292" rx="28" ry="28"
        fill="none" stroke="rgba(255,255,255,0.22)" stroke-width="10"/>

  <!-- 세탁기 상단 패널 -->
  <rect x="108" y="110" width="296" height="72" rx="28" ry="28"
        fill="rgba(255,255,255,0.10)"/>
  <rect x="108" y="154" width="296" height="28" fill="rgba(255,255,255,0.10)"/>

  <!-- 상단 표시등 -->
  <circle cx="165" cy="146" r="10" fill="#FFD600"/>
  <circle cx="200" cy="146" r="10" fill="rgba(255,255,255,0.3)"/>
  <circle cx="235" cy="146" r="10" fill="rgba(255,255,255,0.15)"/>

  <!-- 드럼 원 (외곽) -->
  <circle cx="256" cy="296" r="118" fill="url(#drum)" stroke="rgba(255,255,255,0.28)" stroke-width="9" filter="url(#shadow)"/>

  <!-- 드럼 내부 회전 날개 -->
  <circle cx="256" cy="296" r="80" fill="rgba(255,255,255,0.06)" stroke="rgba(255,255,255,0.18)" stroke-width="5"/>

  <!-- 드럼 날개 3개 -->
  <rect x="249" y="222" width="14" height="40" rx="7" fill="rgba(255,255,255,0.55)"
        transform="rotate(0 256 296)"/>
  <rect x="249" y="222" width="14" height="40" rx="7" fill="rgba(255,255,255,0.55)"
        transform="rotate(120 256 296)"/>
  <rect x="249" y="222" width="14" height="40" rx="7" fill="rgba(255,255,255,0.55)"
        transform="rotate(240 256 296)"/>

  <!-- 드럼 중심 -->
  <circle cx="256" cy="296" r="18" fill="rgba(255,255,255,0.12)" stroke="rgba(255,255,255,0.4)" stroke-width="4"/>
  <circle cx="256" cy="296" r="6" fill="rgba(255,255,255,0.7)"/>

  <!-- 세팡 로고 텍스트 -->
  <text x="256" y="466"
        font-family="'Noto Sans KR', 'Apple SD Gothic Neo', sans-serif"
        font-size="68" font-weight="900" text-anchor="middle"
        letter-spacing="4"
        fill="white">세<tspan fill="#FFD600">팡</tspan></text>

  <!-- 하단 장식 선 -->
  <rect x="190" y="477" width="132" height="4" rx="2" fill="rgba(255,255,255,0.18)"/>
</svg>
